<svg xmlns="http://www.w3.org/2000/svg" width="32" height="32" viewBox="0 0 512 512">
  <defs>
    <linearGradient id="bg" x1="0%" y1="0%" x2="100%" y2="100%">
      <stop offset="0%" style="stop-color:#f59e0b"/>
      <stop offset="50%" style="stop-color:#059669"/>
      <stop offset="100%" style="stop-color:#0891b2"/>
    </linearGradient>
  </defs>
  <rect width="512" height="512" fill="url(#bg)"/>
  <circle cx="256" cy="200" r="130" fill="#ffffff"/>
  <g transform="translate(256,200)">
    <path d="M-15,-50 Q0,-70 15,-50 Q20,-30 0,-20 Q-20,-30 -15,-50 Z" fill="#f59e0b"/>
    <path d="M-35,-35 Q-55,-20 -35,-5 Q-15,-10 -25,-30 Q-15,-50 -35,-35 Z" fill="#f59e0b"/>
    <path d="M-50,0 Q-70,15 -50,30 Q-30,25 -20,5 Q-30,-15 -50,0 Z" fill="#f59e0b"/>
    <path d="M-35,35 Q-55,50 -35,65 Q-15,60 -5,40 Q-15,20 -35,35 Z" fill="#f59e0b"/>
    <path d="M15,50 Q0,70 -15,50 Q-20,30 0,20 Q20,30 15,50 Z" fill="#f59e0b"/>
    <path d="M35,35 Q55,50 35,65 Q15,60 5,40 Q15,20 35,35 Z" fill="#f59e0b"/>
    <path d="M50,0 Q70,-15 50,-30 Q30,-25 20,-5 Q30,15 50,0 Z" fill="#f59e0b"/>
    <path d="M35,-35 Q55,-50 35,-65 Q15,-60 5,-40 Q15,-20 35,-35 Z" fill="#f59e0b"/>
  </g>
  <g transform="translate(256,380)">
    <path d="M-120,20 Q-120,0 -100,0 L100,0 Q120,0 120,20 L120,60 Q120,80 100,80 L-100,80 Q-120,80 -120,60 Z" fill="#ffffff"/>
    <path d="M-100,10 Q-40,-10 0,-10 Q40,-10 100,10 L100,60 Q40,40 0,40 Q-40,40 -100,60 Z" fill="#0891b2"/>
    <ellipse cx="0" cy="70" rx="8" ry="6" fill="#f59e0b"/>
  </g>
</svg>
